<?xml version="1.0" encoding="UTF-8" standalone="no"?>
<svg
   enable-background="new 0 0 32 32"
   viewBox="0 0 52 52"
   id="checkmark"
   version="1.1"
   sodipodi:docname="todo-favicon.svg"
   inkscape:version="1.2.1 (9c6d41e410, 2022-07-14)"
   width="52"
   height="52"
   xmlns:inkscape="http://www.inkscape.org/namespaces/inkscape"
   xmlns:sodipodi="http://sodipodi.sourceforge.net/DTD/sodipodi-0.dtd"
   xmlns="http://www.w3.org/2000/svg"
   xmlns:svg="http://www.w3.org/2000/svg">
  <defs
     id="defs12" />
  <sodipodi:namedview
     id="namedview10"
     pagecolor="#ffffff"
     bordercolor="#000000"
     borderopacity="0.25"
     inkscape:showpageshadow="2"
     inkscape:pageopacity="0.0"
     inkscape:pagecheckerboard="0"
     inkscape:deskcolor="#d1d1d1"
     showgrid="false"
     inkscape:zoom="5.9662135"
     inkscape:cx="-5.6149516"
     inkscape:cy="19.610428"
     inkscape:window-width="1366"
     inkscape:window-height="742"
     inkscape:window-x="0"
     inkscape:window-y="0"
     inkscape:window-maximized="1"
     inkscape:current-layer="checkmark" />
  <linearGradient
     id="a"
     x1="16"
     x2="16"
     y1="2.786"
     y2="30.656"
     gradientUnits="userSpaceOnUse"
     gradientTransform="matrix(2,0,0,2,-6,-6)">
    <stop
       offset="0"
       stop-color="#ffcc2f"
       id="stop2" />
    <stop
       offset="1"
       stop-color="#ff911c"
       id="stop4" />
  </linearGradient>
  <path
     fill="url(#a)"
     d="m 46,8.0000004 h -2 v -2 C 44,2.6914004 41.3086,0 38,0 H 6 C 2.6914,0 0,2.6914004 0,6.0000004 V 38 c 0,3.3086 2.6914,6 6,6 h 2 v 2 c 0,3.3086 2.6914,6 6,6 h 32 c 3.3086,0 6,-2.6914 6,-6 V 14 C 52,10.6914 49.3086,8.0000004 46,8.0000004 Z M 4,38 V 6.0000004 c 0,-1.1026 0.8974,-2 2,-2 h 32 c 1.1026,0 2,0.8974 2,2 V 38 c 0,1.1026 -0.8974,2 -2,2 H 6 C 4.8974,40 4,39.1026 4,38 Z m 44,8 c 0,1.1026 -0.8974,2 -2,2 H 14 c -1.1026,0 -2,-0.8974 -2,-2 v -2 h 26 c 3.3086,0 6,-2.6914 6,-6 V 12 h 2 c 1.1026,0 2,0.8974 2,2 z M 27.8072,13.5616 c 0.339,-0.4358 0.9672,-0.5144 1.403,-0.1756 l 1.5792,1.2276 c 0.4362,0.339 0.5148,0.9674 0.1756,1.4034 L 20.6894,29.2274 C 20.3096,29.7168 19.7256,30 19.1104,30 19.0802,30 19.0488,29.999 19.0176,29.998 18.3692,29.9678 17.7744,29.624 17.4248,29.0762 l -4.5718,-7.157 c -0.2974,-0.4656 -0.161,-1.084 0.3046,-1.3812 l 1.6854,-1.076 c 0.4654,-0.2972 1.0836,-0.1608 1.3808,0.3046 l 3.0468,4.7698 z"
     id="path7"
     style="fill:url(#a);stroke-width:2"
     inkscape:export-filename="todo.svg"
     inkscape:export-xdpi="96"
     inkscape:export-ydpi="96" />
</svg>
